#!OML:ASF I:\golf\golf\golf 2\Subject 1\2002-09-07\Subject1.ASF
:FULLY-SPECIFIED
:DEGREES
443
root 1.66246 17.7526 -4.25234 12.8216 6.02152 -2.67189
lowerback 7.96413 1.07993 0.058456
upperback 2.47822 1.59828 5.88081
thorax -2.06548 0.797222 5.94307
lowerneck -23.8035 -8.63564 -4.46229
upperneck 3.009 -10.8251 6.71368
head 5.21473 -4.86859 1.6154
rclavicle -1.43125e-014 -1.43125e-014
rhumerus -11.241 11.39 -68.2555
rradius 59.143
rwrist -14.4016
rhand -25.6324 15.792
rfingers 7.12502
rthumb 0.90083 -14.1858
lclavicle -1.43125e-014 -1.43125e-014
lhumerus -24.2944 -6.15006 90.6374
lradius 42.7568
lwrist 7.38951
lhand -10.9948 32.7343
lfingers 7.12502
lthumb 15.0255 62.1691
rfemur -37.1749 2.75644 15.6308
rtibia 32.779
rfoot -6.3433 4.19802
rtoes 9.11711
lfemur -17.0066 1.27727 -17.0106
ltibia 30.9985
lfoot -21.6912 -2.87857
ltoes -6.6466
444
root 1.69262 17.7523 -4.27422 12.4197 5.98425 -2.65138
lowerback 7.82974 1.0287 -0.166432
upperback 2.49206 1.50732 5.86747
thorax -1.97214 0.750654 6.06875
lowerneck -23.8501 -8.71794 -4.51556
upperneck 3.212 -10.9364 6.78244
head 5.29973 -4.91246 1.62506
rclavicle -9.93923e-015 3.65764e-014
rhumerus -11.8698 11.3364 -68.4703
rradius 59.4035
rwrist -14.476
rhand -25.723 15.8337
rfingers 7.12502
rthumb 0.813235 -14.1445
lclavicle -9.93923e-015 3.65764e-014
lhumerus -24.3173 -6.08056 90.5385
lradius 43.0336
lwrist 7.42615
lhand -11.1681 32.2693
lfingers 7.12502
lthumb 14.8586 61.7165
rfemur -36.7413 2.71773 15.5427
rtibia 32.6832
rfoot -5.93411 4.34188
rtoes 4.2762
lfemur -16.586 1.42272 -17.1445
ltibia 30.9391
lfoot -21.661 -2.97411
ltoes -7.23418
445
root 1.72098 17.7543 -4.29322 12.0792 5.86872 -2.54656
lowerback 7.65824 1.04192 -0.522108
upperback 2.22311 1.50254 5.74662
thorax -2.16111 0.755869 6.14556
lowerneck -22.7057 -8.72502 -4.44991
upperneck 3.04996 -11.0156 6.88506
head 5.09119 -4.97246 1.6747
rclavicle -5.56597e-015 1.59028e-014
rhumerus -13.2497 11.2772 -68.9301
rradius 59.6816
rwrist -14.474
rhand -25.8835 15.7776
rfingers 7.12502
rthumb 0.658234 -14.2011
lclavicle -5.56597e-015 1.59028e-014
lhumerus -24.9367 -6.26416 90.3973
lradius 43.3663
lwrist 7.441
lhand -10.7892 32.5035
lfingers 7.12502
lthumb 15.2235 61.9234
rfemur -36.3749 2.76223 15.3273
rtibia 32.5995
rfoot -5.79184 4.35298
rtoes 5.24945
lfemur -16.2062 1.61468 -17.3943
ltibia 30.8869
lfoot -21.7175 -2.94504
ltoes -8.54255
446
root 1.74414 17.757 -4.31912 11.915 5.90584 -2.43083
lowerback 7.37758 1.01302 -0.879851
upperback 1.97096 1.43945 5.65582
thorax -2.26571 0.731474 6.26271
lowerneck -21.8986 -8.77366 -4.43454
upperneck 3.01258 -11.1282 6.99911
head 4.97504 -5.03856 1.71956
rclavicle -4.77083e-015 3.18055e-015
rhumerus -14.4538 11.1901 -69.3094
rradius 59.881
rwrist -14.4801
rhand -25.9158 15.6836
rfingers 7.12502
rthumb 0.627044 -14.2952
lclavicle -4.77083e-015 3.18055e-015
lhumerus -25.3483 -6.4693 90.2802
lradius 43.6923
lwrist 7.67073
lhand -10.4804 32.956
lfingers 7.12502
lthumb 15.521 62.353
rfemur -36.1997 2.91488 15.0446
rtibia 32.5056
rfoot -5.75044 4.06378
rtoes 6.31087
lfemur -16.0882 1.65617 -17.6105
ltibia 30.8242
lfoot -21.5752 -3.04506
ltoes -8.95596
447
root 1.76866 17.7591 -4.34472 11.6646 5.8524 -2.47666
lowerback 7.1618 0.873151 -0.9556
upperback 2.32061 1.2285 5.70274
thorax -1.76055 0.61114 6.37886
lowerneck -23.607 -8.85299 -4.48072
upperneck 3.70734 -11.1845 6.94016
head 5.44665 -5.01391 1.63405
rclavicle -2.46493e-014 -2.22639e-014
rhumerus -14.1048 11.2336 -69.3909
rradius 59.7671
rwrist -14.5854
rhand -25.7495 15.6276
rfingers 7.12502
rthumb 0.78764 -14.3507
lclavicle -2.46493e-014 -2.22639e-014
lhumerus -24.5838 -6.11715 90.0687
lradius 43.9749
lwrist 8.007
lhand -10.5607 33.3561
lfingers 7.12502
lthumb 15.4436 62.7592
rfemur -35.9594 3.13912 14.9541
rtibia 32.4183
rfoot -5.69111 3.89376
rtoes 4.981
lfemur -15.8727 1.71902 -17.658
ltibia 30.7426
lfoot -21.3272 -3.20931
ltoes -8.14558
448
root 1.79494 17.758 -4.36167 11.2734 5.6216 -2.57262
lowerback 7.09437 0.912747 -1.07866
upperback 2.01257 1.28051 5.56028
thorax -2.04817 0.647737 6.29258
lowerneck -22.2637 -8.85906 -4.26813
upperneck 3.50766 -11.2972 6.95315
head 5.18321 -5.1012 1.63794
rclavicle 2.70347e-014 3.02153e-014
rhumerus -15.5347 11.0722 -70.0177
rradius 59.7306
rwrist -14.5709
rhand -25.6592 15.4502
rfingers 7.12502
rthumb 0.874938 -14.5278
lclavicle 2.70347e-014 3.02153e-014
lhumerus -25.3892 -6.39119 89.8284
lradius 44.2721
lwrist 8.14639
lhand -10.6669 33.3065
lfingers 7.12502
lthumb 15.3413 62.7174
rfemur -35.5682 3.34398 14.9646
rtibia 32.3276
rfoot -5.63827 3.97391
rtoes 5.20088
lfemur -15.4424 1.86023 -17.6731
ltibia 30.6801
lfoot -21.2268 -3.2952
ltoes -7.08385
